<svg xmlns="http://www.w3.org/2000/svg" viewBox="0 0 1600 900" width="1600" height="900">
  <defs>
    <linearGradient id="bg" x1="0" y1="0" x2="0" y2="1">
      <stop offset="0%" stop-color="#001F3F"/>
      <stop offset="100%" stop-color="#001631"/>
    </linearGradient>
    <linearGradient id="gold" x1="0" y1="0" x2="1" y2="1">
      <stop offset="0%" stop-color="#C8A24A"/>
      <stop offset="100%" stop-color="#b18c37"/>
    </linearGradient>
  </defs>
  <rect width="1600" height="900" fill="url(#bg)"/>
  <!-- Abstract vignette -->
  <ellipse cx="300" cy="120" rx="520" ry="280" fill="#0e2b50" opacity="0.35"/>
  <ellipse cx="1400" cy="780" rx="480" ry="240" fill="#0c2748" opacity="0.28"/>
  <!-- Minimal scales of justice -->
  <g transform="translate(800 420)" opacity="0.25" stroke="url(#gold)" stroke-width="5" fill="none">
    <line x1="0" y1="-140" x2="0" y2="160"/>
    <line x1="-160" y1="-40" x2="160" y2="-40"/>
    <circle cx="0" cy="-160" r="12" fill="url(#gold)"/>
    <path d="M -120 -40 C -120 -10 -160 30 -200 30 C -240 30 -280 -10 -280 -40 Z"/>
    <path d="M 120 -40 C 120 -10 160 30 200 30 C 240 30 280 -10 280 -40 Z"/>
  </g>
</svg>

