<svg xmlns="http://www.w3.org/2000/svg" style="display:none">
  <symbol id="icon-user" viewBox="0 0 24 24">
    <g fill="none" stroke="currentColor" stroke-width="1.8" stroke-linecap="round" stroke-linejoin="round">
      <circle cx="12" cy="7.5" r="3.5"/>
      <path d="M3.5 20c1.8-3.6 5.2-5.5 8.5-5.5S18.7 16.4 20.5 20"/>
    </g>
  </symbol>
  <symbol id="icon-education" viewBox="0 0 24 24">
    <g fill="none" stroke="currentColor" stroke-width="1.8" stroke-linecap="round" stroke-linejoin="round">
      <path d="M2 8l10-5 10 5-10 5z"/>
      <path d="M4 10v5c3 2 6 3 8 3s5-1 8-3v-5"/>
    </g>
  </symbol>
  <symbol id="icon-briefcase" viewBox="0 0 24 24">
    <g fill="none" stroke="currentColor" stroke-width="1.8" stroke-linecap="round" stroke-linejoin="round">
      <rect x="3" y="7" width="18" height="13" rx="2"/>
      <path d="M9 7V5a2 2 0 0 1 2-2h2a2 2 0 0 1 2 2v2"/>
      <path d="M3 12h18"/>
    </g>
  </symbol>
  <symbol id="icon-badge" viewBox="0 0 24 24">
    <g fill="none" stroke="currentColor" stroke-width="1.8" stroke-linecap="round" stroke-linejoin="round">
      <circle cx="12" cy="10" r="5"/>
      <path d="M8 16l-2 6 6-3 6 3-2-6"/>
    </g>
  </symbol>
  <symbol id="icon-heart" viewBox="0 0 24 24">
    <path d="M12 21s-7-4.5-9-8.5S5 3 8.5 5.5L12 8l3.5-2.5C19 3 23 6 21 12.5S12 21 12 21z" fill="none" stroke="currentColor" stroke-width="1.8" stroke-linecap="round" stroke-linejoin="round"/>
  </symbol>
  <symbol id="icon-clock" viewBox="0 0 24 24">
    <g fill="none" stroke="currentColor" stroke-width="1.8" stroke-linecap="round" stroke-linejoin="round">
      <circle cx="12" cy="12" r="8.5"/>
      <path d="M12 7v6l4 2"/>
    </g>
  </symbol>
  <symbol id="icon-map" viewBox="0 0 24 24">
    <g fill="none" stroke="currentColor" stroke-width="1.8" stroke-linecap="round" stroke-linejoin="round">
      <path d="M9 3l6 2 6-2v18l-6 2-6-2-6 2V5z"/>
      <path d="M9 3v18M15 5v18"/>
    </g>
  </symbol>
  <symbol id="icon-nav" viewBox="0 0 24 24">
    <g fill="none" stroke="currentColor" stroke-width="1.8" stroke-linecap="round" stroke-linejoin="round">
      <circle cx="12" cy="12" r="9"/>
      <path d="M12 6l3 6-6 6 3-6z"/>
    </g>
  </symbol>
  <symbol id="icon-phone" viewBox="0 0 24 24">
    <path d="M4 5l4-2 3 5-2 2c1.5 3 3.5 5 6.5 6.5l2-2 5 3-2 4c-7-1-13-7-14.5-14.5z" fill="none" stroke="currentColor" stroke-width="1.8" stroke-linecap="round" stroke-linejoin="round"/>
  </symbol>
  <symbol id="icon-whatsapp" viewBox="0 0 24 24">
    <g fill="none" stroke="currentColor" stroke-width="1.8" stroke-linecap="round" stroke-linejoin="round">
      <circle cx="12" cy="12" r="8"/>
      <path d="M7 19l1.5-3.5"/>
      <path d="M9 10c1.5 3 3.5 4.5 6 5l1.5-1.5"/>
    </g>
  </symbol>
  <symbol id="icon-linkedin" viewBox="0 0 24 24">
    <g fill="none" stroke="currentColor" stroke-width="1.8" stroke-linecap="round" stroke-linejoin="round">
      <rect x="3" y="3" width="18" height="18" rx="2"/>
      <path d="M7 17v-6M7 8v0M11 17v-4a3 3 0 0 1 6 0v4"/>
    </g>
  </symbol>
  <symbol id="icon-instagram" viewBox="0 0 24 24">
    <g fill="none" stroke="currentColor" stroke-width="1.8" stroke-linecap="round" stroke-linejoin="round">
      <rect x="3" y="3" width="18" height="18" rx="5"/>
      <circle cx="12" cy="12" r="4"/>
      <circle cx="17.5" cy="6.5" r="0.8"/>
    </g>
  </symbol>
  <symbol id="icon-criminal" viewBox="0 0 24 24">
    <g fill="none" stroke="currentColor" stroke-width="1.8">
      <circle cx="12" cy="7" r="3"/>
      <path d="M4 20c1.5-3 4.5-5 8-5s6.5 2 8 5"/>
    </g>
  </symbol>
  <symbol id="icon-civil" viewBox="0 0 24 24">
    <g fill="none" stroke="currentColor" stroke-width="1.8">
      <rect x="4" y="5" width="16" height="14" rx="2"/>
      <path d="M8 9h8M8 12h8M8 15h5"/>
    </g>
  </symbol>
  <symbol id="icon-corporate" viewBox="0 0 24 24">
    <g fill="none" stroke="currentColor" stroke-width="1.8">
      <rect x="3" y="8" width="6" height="10"/>
      <rect x="10.5" y="5" width="6" height="13"/>
      <rect x="18" y="11" width="3" height="7"/>
    </g>
  </symbol>
  <symbol id="icon-realestate" viewBox="0 0 24 24">
    <g fill="none" stroke="currentColor" stroke-width="1.8">
      <path d="M3 12l9-7 9 7"/>
      <path d="M6 10v9h12v-9"/>
      <rect x="10" y="14" width="4" height="5"/>
    </g>
  </symbol>
  <symbol id="icon-family" viewBox="0 0 24 24">
    <g fill="none" stroke="currentColor" stroke-width="1.8">
      <circle cx="8" cy="8" r="2.5"/>
      <circle cx="16" cy="8" r="2.5"/>
      <path d="M3 20c1-2.5 3-4 5.5-4s4.5 1.5 5.5 4"/>
      <path d="M10 20c1-2.5 3-4 5.5-4S20 17.5 21 20"/>
    </g>
  </symbol>
  <symbol id="icon-contracts" viewBox="0 0 24 24">
    <g fill="none" stroke="currentColor" stroke-width="1.8">
      <path d="M7 4h8l3 3v13H7z"/>
      <path d="M10 9h6M10 12h6M10 15h4"/>
    </g>
  </symbol>
  <symbol id="icon-justice" viewBox="0 0 24 24">
    <g fill="none" stroke="currentColor" stroke-width="1.8" stroke-linecap="round" stroke-linejoin="round">
      <line x1="12" y1="4" x2="12" y2="20"/>
      <line x1="5" y1="9" x2="19" y2="9"/>
      <path d="M7.5 9c0 2-2 3.5-4 3.5S-.5 11  -0.5 9Z" transform="translate(2 0)"/>
      <path d="M16.5 9c0 2 2 3.5 4 3.5S24.5 11 24.5 9Z" transform="translate(-2 0)"/>
      <circle cx="12" cy="3" r="1"/>
    </g>
  </symbol>
</svg>

